<svg width="116" height="113" viewBox="0 0 116 113" fill="none" xmlns="http://www.w3.org/2000/svg">
<ellipse cx="58" cy="56.5" rx="58" ry="56.5" fill="white"/>
<path d="M48.109 67.9934C48.109 66.5316 49.294 65.3467 50.7557 65.3467C52.2174 65.3467 53.4024 66.5316 53.4024 67.9934V91.152C53.4024 92.6137 52.2174 93.7987 50.7557 93.7987C49.294 93.7987 48.109 92.6137 48.109 91.152V67.9934Z" fill="black"/>
<rect x="34.876" y="49.4663" width="5.2934" height="18.5269" rx="2.6467" fill="black"/>
<rect x="61.342" y="65.3467" width="5.2934" height="22.4969" rx="2.6467" fill="black"/>
<rect x="48.109" y="28.9548" width="5.2934" height="11.2485" rx="2.6467" fill="black"/>
<rect x="75.2375" y="46.1582" width="5.2934" height="17.8652" rx="2.6467" fill="black"/>
<rect x="74.9348" y="17.7061" width="5.2934" height="19.8502" rx="2.6467" fill="black"/>
<rect x="78.9866" y="31.5908" width="5.2934" height="48.6181" rx="2.6467" transform="rotate(67.7143 78.9866 31.5908)" fill="black"/>
<rect x="79.3098" y="45.3926" width="5.2934" height="48.8879" rx="2.6467" transform="rotate(67.7143 79.3098 45.3926)" fill="black"/>
<rect x="65.3708" y="81.9482" width="5.73452" height="19.3404" rx="2.86726" transform="rotate(67.7143 65.3708 81.9482)" fill="black"/>
<rect x="79.3643" y="58.5549" width="5.2934" height="20.3106" rx="2.6467" transform="rotate(67.7143 79.3643 58.5549)" fill="black"/>
<rect x="78.9406" y="17" width="5.2934" height="34.1844" rx="2.6467" transform="rotate(67.7143 78.9406 17)" fill="black"/>
</svg>
